<?xml version="1.0" encoding="utf-8"?>
<!-- Generator: Adobe Illustrator 16.0.3, SVG Export Plug-In . SVG Version: 6.00 Build 0)  -->
<!DOCTYPE svg PUBLIC "-//W3C//DTD SVG 1.1//EN" "http://www.w3.org/Graphics/SVG/1.1/DTD/svg11.dtd">
<svg version="1.1" id="Ebene_1" xmlns="http://www.w3.org/2000/svg" xmlns:xlink="http://www.w3.org/1999/xlink" x="0px" y="0px"
	 width="512px" height="512px" viewBox="0 0 512 512" enable-background="new 0 0 512 512" xml:space="preserve">
<g>
	<path fill="#000000" d="M126.333,256c0-6.828,0.531-13.531,1.548-20.074L3.057,216.369C1.049,229.286,0,242.52,0,256
		c0,13.479,1.049,26.713,3.056,39.629l124.825-19.557C126.864,269.53,126.333,262.827,126.333,256z"/>
	<path fill="#000000" d="M134.998,302.68L17.107,348.158c9.652,25.005,23.117,48.108,39.682,68.608l98.309-79.336
		C146.707,327.047,139.887,315.345,134.998,302.68z"/>
	<path fill="#000000" d="M95.231,455.21c20.5,16.565,43.604,30.029,68.608,39.683l45.48-117.891
		c-12.665-4.89-24.368-11.709-34.751-20.1L95.231,455.21z"/>
	<path fill="#000000" d="M256,385.667c-6.828,0-13.531-0.531-20.073-1.548L216.37,508.943C229.287,510.951,242.521,512,256,512
		s26.714-1.049,39.631-3.057l-19.558-124.824C269.531,385.136,262.827,385.667,256,385.667z"/>
	<path fill="#000000" d="M155.097,174.569c19.79-24.491,48.308-41.634,80.831-46.688c2.084-0.324,4.191-0.58,6.308-0.804
		l-0.005-0.028L228.816,1.443c-4.178,0.442-8.329,0.973-12.445,1.613C152.163,13.035,95.86,46.88,56.789,95.232
		c-16.564,20.499-30.028,43.603-39.681,68.606l117.891,45.48C139.888,196.654,146.707,184.952,155.097,174.569z"/>
	<path fill="#000000" d="M295.629,3.056c-4.115-0.64-8.267-1.17-12.444-1.612l-13.412,125.598l-0.002,0.036
		c2.114,0.224,4.219,0.479,6.302,0.803c62.081,9.648,109.595,63.333,109.595,128.119c0,40.767-18.818,77.132-48.235,100.902
		c-10.384,8.391-22.086,15.21-34.751,20.1l45.479,117.891c25.005-9.653,48.108-23.117,68.608-39.683
		C474.847,408.28,512,336.484,512,256C512,128.094,418.194,22.104,295.629,3.056z"/>
</g>
</svg>
