<?xml version="1.0" encoding="UTF-8" standalone="no"?>
<svg
   viewBox="0 0 20 20"
   version="1.1"
   id="svg4"
   sodipodi:docname="content-save-edit-outline.svg"
   width="20"
   height="20"
   inkscape:version="1.2.2 (b0a8486541, 2022-12-01)"
   xmlns:inkscape="http://www.inkscape.org/namespaces/inkscape"
   xmlns:sodipodi="http://sodipodi.sourceforge.net/DTD/sodipodi-0.dtd"
   xmlns="http://www.w3.org/2000/svg"
   xmlns:svg="http://www.w3.org/2000/svg">
  <defs
     id="defs8" />
  <sodipodi:namedview
     id="namedview6"
     pagecolor="#ffffff"
     bordercolor="#666666"
     borderopacity="1.0"
     inkscape:showpageshadow="2"
     inkscape:pageopacity="0.0"
     inkscape:pagecheckerboard="0"
     inkscape:deskcolor="#d1d1d1"
     showgrid="false"
     inkscape:zoom="42.791667"
     inkscape:cx="9.5345666"
     inkscape:cy="9.1022395"
     inkscape:window-width="2194"
     inkscape:window-height="1275"
     inkscape:window-x="0"
     inkscape:window-y="0"
     inkscape:window-maximized="1"
     inkscape:current-layer="svg4" />
  <path
     d="m 2.0675,16.5 h 6 v 2 h -6 c -1.11,0 -2,-0.9 -2,-2 v -14 c 0,-1.1 0.89,-2 2,-2 h 12 l 4,4 v 2.12 l -2,2 V 5.33 l -2.83,-2.83 h -11.17 v 14 m 10,-9 v -4 h -9 v 4 h 9 m 6.42,2.3 c -0.11,-0.11 -0.24,-0.17 -0.38,-0.17 -0.14,0 -0.28,0.06 -0.39,0.17 l -1,1 2.05,2.05 1,-1 c 0.22,-0.21 0.22,-0.56 0,-0.77 l -1.28,-1.28 m -8.42,7.64 v 2.06 h 2.06 l 6.06,-6.07 -2.05,-2.05 -6.07,6.06 m 2,-4.94 c 0,-1.66 -1.34,-3 -3,-3 -1.66,0 -3,1.34 -3,3 0,1.66 1.34,3 3,3 0.04,0 0.08,0 0.13,0 l 2.87,-2.87 c 0,-0.04 0,-0.08 0,-0.13"
     id="path2" />
</svg>
